<svg xmlns="http://www.w3.org/2000/svg" xmlns:xlink="http://www.w3.org/1999/xlink" width="500" zoomAndPan="magnify" viewBox="0 0 375 374.999991" height="500" preserveAspectRatio="xMidYMid meet" version="1.0"><defs><g/><clipPath id="f25fcf7e80"><path d="M 131.039062 124.789062 L 242.648438 124.789062 L 242.648438 157.3125 L 131.039062 157.3125 Z M 131.039062 124.789062 " clip-rule="nonzero"/></clipPath><clipPath id="5aef388eaa"><path d="M 31.324219 149.046875 L 131 149.046875 L 131 239.796875 L 31.324219 239.796875 Z M 31.324219 149.046875 " clip-rule="nonzero"/></clipPath></defs><rect x="-37.5" width="450" fill="#ffffff" y="-37.499999" height="449.999989" fill-opacity="1"/><rect x="-37.5" width="450" fill="#ffffff" y="-37.499999" height="449.999989" fill-opacity="1"/><rect x="-37.5" width="450" fill="#e8e8e8" y="-37.499999" height="449.999989" fill-opacity="1"/><g clip-path="url(#f25fcf7e80)"><path fill="#e8e8e8" d="M 131.039062 124.789062 L 242.648438 124.789062 L 242.648438 157.3125 L 131.039062 157.3125 Z M 131.039062 124.789062 " fill-opacity="1" fill-rule="nonzero"/></g><g fill="#2e2e2e" fill-opacity="1"><g transform="translate(131.038136, 215.710973)"><g><path d="M 5.277344 0 L 40.28125 0 L 40.28125 -11.765625 L 19.535156 -11.765625 L 19.535156 -19.464844 L 37.574219 -19.464844 L 37.574219 -31.011719 L 19.535156 -31.011719 L 19.535156 -38.285156 L 39.496094 -38.285156 L 39.496094 -49.90625 L 5.277344 -49.90625 Z M 5.277344 0 "/></g></g></g><g fill="#2e2e2e" fill-opacity="1"><g transform="translate(170.95702, 215.710973)"><g><path d="M 26.734375 1.070312 C 40.210938 1.070312 48.550781 -7.128906 48.550781 -20.53125 L 48.550781 -49.90625 L 34.222656 -49.90625 L 34.222656 -21.460938 C 34.222656 -15.542969 31.726562 -12.40625 26.734375 -12.40625 C 21.746094 -12.40625 19.25 -15.542969 19.25 -21.460938 L 19.25 -49.90625 L 4.847656 -49.90625 L 4.847656 -20.53125 C 4.847656 -7.128906 13.261719 1.070312 26.734375 1.070312 Z M 26.734375 1.070312 "/></g></g></g><g fill="#2e2e2e" fill-opacity="1"><g transform="translate(220.855815, 215.710973)"><g><path d="M 23.171875 1.070312 C 35.578125 1.070312 42.917969 -4.777344 42.917969 -14.617188 C 42.917969 -22.886719 37.574219 -27.734375 25.453125 -30.441406 C 19.035156 -31.867188 16.683594 -33.4375 16.683594 -36.003906 C 16.683594 -38.429688 18.820312 -39.925781 22.171875 -39.925781 C 26.164062 -39.925781 28.445312 -37.859375 28.445312 -34.078125 L 41.992188 -34.078125 C 41.992188 -44.34375 34.148438 -50.976562 21.886719 -50.976562 C 10.125 -50.976562 2.851562 -45.128906 2.851562 -35.71875 C 2.851562 -27.304688 8.339844 -22.101562 19.605469 -19.960938 C 25.667969 -18.75 28.589844 -16.898438 28.589844 -14.046875 C 28.589844 -11.550781 26.449219 -10.125 22.957031 -10.125 C 18.820312 -10.125 16.398438 -12.335938 16.398438 -16.183594 L 2.496094 -16.183594 C 2.496094 -5.417969 10.195312 1.070312 23.171875 1.070312 Z M 23.171875 1.070312 "/></g></g></g><g fill="#2e2e2e" fill-opacity="1"><g transform="translate(131.038136, 283.210969)"><g><path d="M 5.277344 0 L 19.675781 0 L 19.675781 -12.335938 L 26.308594 -12.335938 C 39 -12.335938 47.054688 -19.675781 47.054688 -31.15625 C 47.054688 -42.632812 39 -49.90625 26.308594 -49.90625 L 5.277344 -49.90625 Z M 19.535156 -24.382812 L 19.535156 -37.785156 L 24.953125 -37.785156 C 29.730469 -37.785156 32.511719 -35.21875 32.511719 -31.085938 C 32.511719 -26.878906 29.730469 -24.382812 24.953125 -24.382812 Z M 19.535156 -24.382812 "/></g></g></g><g fill="#2e2e2e" fill-opacity="1"><g transform="translate(176.160831, 283.210969)"><g><path d="M 0.355469 0 L 15.613281 0 L 18.324219 -7.058594 L 35.363281 -7.058594 L 38.070312 0 L 53.398438 0 L 34.007812 -49.90625 L 19.75 -49.90625 Z M 21.316406 -17.609375 L 26.878906 -33.082031 L 32.4375 -17.609375 Z M 21.316406 -17.609375 "/></g></g></g><g fill="#2e2e2e" fill-opacity="1"><g transform="translate(226.344767, 283.210969)"><g><path d="M 5.277344 0 L 19.675781 0 L 19.675781 -12.335938 L 26.308594 -12.335938 C 39 -12.335938 47.054688 -19.675781 47.054688 -31.15625 C 47.054688 -42.632812 39 -49.90625 26.308594 -49.90625 L 5.277344 -49.90625 Z M 19.535156 -24.382812 L 19.535156 -37.785156 L 24.953125 -37.785156 C 29.730469 -37.785156 32.511719 -35.21875 32.511719 -31.085938 C 32.511719 -26.878906 29.730469 -24.382812 24.953125 -24.382812 Z M 19.535156 -24.382812 "/></g></g></g><g fill="#2e2e2e" fill-opacity="1"><g transform="translate(271.467455, 283.210969)"><g><path d="M 5.277344 0 L 40.28125 0 L 40.28125 -11.765625 L 19.535156 -11.765625 L 19.535156 -19.464844 L 37.574219 -19.464844 L 37.574219 -31.011719 L 19.535156 -31.011719 L 19.535156 -38.285156 L 39.496094 -38.285156 L 39.496094 -49.90625 L 5.277344 -49.90625 Z M 5.277344 0 "/></g></g></g><g fill="#2e2e2e" fill-opacity="1"><g transform="translate(311.386345, 283.210969)"><g><path d="M 5.277344 0 L 19.675781 0 L 19.675781 -14.1875 L 25.097656 -14.1875 L 32.226562 0 L 48.550781 0 L 39.355469 -16.824219 C 44.628906 -19.75 47.625 -25.023438 47.625 -32.011719 C 47.625 -43.0625 40.140625 -49.90625 28.019531 -49.90625 L 5.277344 -49.90625 Z M 19.390625 -25.667969 L 19.390625 -38.144531 L 26.09375 -38.144531 C 30.65625 -38.144531 33.152344 -35.933594 33.152344 -31.941406 C 33.152344 -27.949219 30.65625 -25.667969 26.09375 -25.667969 Z M 19.390625 -25.667969 "/></g></g></g><g fill="#2e2e2e" fill-opacity="1"><g transform="translate(359.143593, 283.210969)"><g/></g></g><g clip-path="url(#5aef388eaa)"><path fill="#ffffff" d="M 130.820312 181.367188 C 130.820312 177.152344 127.902344 173.3125 122.035156 169.914062 C 118.035156 167.574219 113.761719 165.980469 109.207031 165.128906 C 107.363281 164.804688 105.507812 164.582031 103.640625 164.472656 L 103.640625 160.59375 L 101.703125 159.390625 L 83.707031 149.046875 L 33.597656 178.171875 L 31.671875 179.296875 L 31.671875 181.535156 L 31.59375 207.878906 L 50.972656 219.050781 L 52.921875 220.175781 L 54.847656 219.050781 L 65.582031 212.804688 L 65.582031 227.464844 L 84.960938 238.6875 L 86.898438 239.8125 L 88.835938 238.6875 L 119.683594 220.730469 C 126.96875 216.492188 130.585938 212.328125 130.753906 207.984375 L 130.832031 181.652344 L 130.832031 181.367188 Z M 130.820312 181.367188 " fill-opacity="1" fill-rule="nonzero"/><path fill="#000000" d="M 130.820312 181.367188 C 130.820312 177.152344 127.902344 173.3125 122.035156 169.914062 C 118.035156 167.574219 113.761719 165.980469 109.207031 165.128906 C 107.363281 164.804688 105.507812 164.582031 103.640625 164.472656 L 103.640625 160.59375 L 101.703125 159.390625 L 83.707031 149.046875 L 33.597656 178.171875 L 31.671875 179.296875 L 31.671875 181.535156 L 31.59375 207.878906 L 50.972656 219.050781 L 52.921875 220.175781 L 54.847656 219.050781 L 65.582031 212.804688 L 65.582031 227.464844 L 84.960938 238.6875 L 86.898438 239.8125 L 88.835938 238.6875 L 119.683594 220.730469 C 126.96875 216.492188 130.585938 212.328125 130.753906 207.984375 L 130.832031 181.652344 L 130.832031 181.367188 Z M 83.707031 153.519531 L 97.839844 161.691406 L 91.613281 165.3125 L 85.464844 168.890625 L 91.601562 168.441406 L 93.667969 168.308594 L 95.488281 168.21875 C 96.972656 168.140625 98.394531 168.117188 99.75 168.128906 C 101.109375 168.140625 102.398438 168.128906 103.625 168.269531 C 105.265625 168.371094 106.894531 168.566406 108.511719 168.851562 C 112.636719 169.621094 116.511719 171.0625 120.136719 173.183594 C 124.695312 175.769531 126.996094 178.535156 126.996094 181.261719 L 126.996094 181.445312 C 126.894531 184.261719 123.726562 187.558594 117.851562 190.984375 L 101.871094 200.304688 L 96.484375 203.433594 L 86.9375 208.980469 L 79.519531 204.714844 L 75.644531 202.464844 L 71.382812 200.007812 L 91.546875 188.269531 L 95.421875 186.007812 L 96.019531 185.660156 C 96.765625 185.21875 97.4375 184.789062 98.035156 184.367188 C 98.617188 183.972656 99.171875 183.542969 99.699219 183.074219 C 100.917969 182.097656 101.652344 180.839844 101.894531 179.296875 C 101.894531 179.15625 101.894531 179.015625 101.894531 178.886719 C 101.898438 178.367188 101.816406 177.863281 101.652344 177.371094 C 101.558594 177.125 101.457031 176.894531 101.339844 176.648438 C 101.222656 176.402344 101.210938 176.402344 101.132812 176.285156 L 100.902344 175.964844 C 100.824219 175.847656 100.734375 175.742188 100.644531 175.628906 C 100.550781 175.507812 100.453125 175.398438 100.34375 175.289062 L 100.0625 174.902344 L 99.738281 174.617188 C 99.542969 174.449219 99.339844 174.296875 99.117188 174.140625 C 98.765625 173.882812 98.398438 173.648438 98.019531 173.429688 C 97.210938 172.96875 96.363281 172.597656 95.476562 172.316406 C 94.21875 171.871094 92.929688 171.59375 91.601562 171.492188 C 90.582031 171.40625 89.566406 171.40625 88.550781 171.492188 C 85 171.683594 80.902344 173.15625 76.019531 176.003906 L 52.933594 189.34375 L 37.433594 180.410156 Z M 50.972656 214.578125 L 35.46875 205.644531 L 35.46875 183.769531 L 50.972656 192.703125 Z M 54.847656 214.578125 L 54.847656 192.703125 L 77.972656 179.273438 C 82.246094 176.789062 85.878906 175.394531 88.769531 175.277344 C 89.710938 175.210938 90.652344 175.238281 91.585938 175.355469 C 92.941406 175.503906 94.234375 175.875 95.460938 176.46875 L 96.042969 176.765625 C 96.667969 177.105469 97.226562 177.535156 97.710938 178.058594 C 97.757812 178.101562 97.796875 178.15625 97.828125 178.210938 C 97.917969 178.324219 97.984375 178.449219 98.019531 178.585938 C 98.03125 178.65625 98.03125 178.726562 98.019531 178.792969 L 98.019531 178.871094 C 98.019531 178.871094 97.890625 179.777344 95.4375 181.457031 C 95.050781 181.714844 94.597656 182 94.144531 182.296875 L 91.5625 183.769531 L 67.496094 197.773438 L 65.570312 198.882812 L 65.570312 208.320312 Z M 69.417969 225.242188 L 69.417969 203.34375 L 71.746094 204.636719 L 75.621094 206.871094 L 84.984375 212.390625 L 84.984375 234.265625 Z M 126.894531 207.675781 L 126.894531 207.84375 C 126.789062 210.660156 123.625 213.957031 117.746094 217.382812 L 88.824219 234.1875 L 88.875 212.390625 L 101.171875 205.230469 L 101.84375 204.828125 L 119.734375 194.488281 L 120.835938 193.828125 C 121.09375 193.6875 121.339844 193.53125 121.570312 193.375 L 122.308594 192.898438 C 122.707031 192.640625 123.082031 192.367188 123.457031 192.109375 C 123.832031 191.851562 124.179688 191.578125 124.527344 191.320312 C 125.148438 190.84375 125.71875 190.363281 126.234375 189.898438 L 126.933594 189.238281 Z M 126.894531 207.675781 " fill-opacity="1" fill-rule="nonzero"/></g></svg>