<?xml version="1.0" standalone="no"?>
<svg xmlns:xlink="http://www.w3.org/1999/xlink" id="wave" style="transform:rotate(0deg); transition: 0.3s" viewBox="0 0 1440 490" version="1.1" xmlns="http://www.w3.org/2000/svg"><defs><linearGradient id="sw-gradient-0" x1="0" x2="0" y1="1" y2="0"><stop stop-color="rgba(254, 216, 200, 1)" offset="0%"/><stop stop-color="rgba(177, 238, 229, 1)" offset="100%"/></linearGradient></defs><path style="transform:translate(0, 0px); opacity:1" fill="url(#sw-gradient-0)" d="M0,245L48,277.7C96,310,192,376,288,375.7C384,376,480,310,576,294C672,278,768,310,864,310.3C960,310,1056,278,1152,261.3C1248,245,1344,245,1440,253.2C1536,261,1632,278,1728,285.8C1824,294,1920,294,2016,261.3C2112,229,2208,163,2304,155.2C2400,147,2496,196,2592,245C2688,294,2784,343,2880,343C2976,343,3072,294,3168,228.7C3264,163,3360,82,3456,106.2C3552,131,3648,261,3744,310.3C3840,359,3936,327,4032,294C4128,261,4224,229,4320,179.7C4416,131,4512,65,4608,89.8C4704,114,4800,229,4896,228.7C4992,229,5088,114,5184,81.7C5280,49,5376,98,5472,171.5C5568,245,5664,343,5760,392C5856,441,5952,441,6048,392C6144,343,6240,245,6336,187.8C6432,131,6528,114,6624,89.8C6720,65,6816,33,6864,16.3L6912,0L6912,490L6864,490C6816,490,6720,490,6624,490C6528,490,6432,490,6336,490C6240,490,6144,490,6048,490C5952,490,5856,490,5760,490C5664,490,5568,490,5472,490C5376,490,5280,490,5184,490C5088,490,4992,490,4896,490C4800,490,4704,490,4608,490C4512,490,4416,490,4320,490C4224,490,4128,490,4032,490C3936,490,3840,490,3744,490C3648,490,3552,490,3456,490C3360,490,3264,490,3168,490C3072,490,2976,490,2880,490C2784,490,2688,490,2592,490C2496,490,2400,490,2304,490C2208,490,2112,490,2016,490C1920,490,1824,490,1728,490C1632,490,1536,490,1440,490C1344,490,1248,490,1152,490C1056,490,960,490,864,490C768,490,672,490,576,490C480,490,384,490,288,490C192,490,96,490,48,490L0,490Z"/><defs><linearGradient id="sw-gradient-1" x1="0" x2="0" y1="1" y2="0"><stop stop-color="rgba(254, 216, 200, 1)" offset="0%"/><stop stop-color="rgba(177, 238, 229, 1)" offset="100%"/></linearGradient></defs><path style="transform:translate(0, 50px); opacity:0.9" fill="url(#sw-gradient-1)" d="M0,49L48,40.8C96,33,192,16,288,40.8C384,65,480,131,576,147C672,163,768,131,864,130.7C960,131,1056,163,1152,179.7C1248,196,1344,196,1440,187.8C1536,180,1632,163,1728,147C1824,131,1920,114,2016,98C2112,82,2208,65,2304,98C2400,131,2496,212,2592,212.3C2688,212,2784,131,2880,81.7C2976,33,3072,16,3168,57.2C3264,98,3360,196,3456,236.8C3552,278,3648,261,3744,261.3C3840,261,3936,278,4032,253.2C4128,229,4224,163,4320,130.7C4416,98,4512,98,4608,114.3C4704,131,4800,163,4896,147C4992,131,5088,65,5184,89.8C5280,114,5376,229,5472,294C5568,359,5664,376,5760,383.8C5856,392,5952,392,6048,326.7C6144,261,6240,131,6336,122.5C6432,114,6528,229,6624,277.7C6720,327,6816,310,6864,302.2L6912,294L6912,490L6864,490C6816,490,6720,490,6624,490C6528,490,6432,490,6336,490C6240,490,6144,490,6048,490C5952,490,5856,490,5760,490C5664,490,5568,490,5472,490C5376,490,5280,490,5184,490C5088,490,4992,490,4896,490C4800,490,4704,490,4608,490C4512,490,4416,490,4320,490C4224,490,4128,490,4032,490C3936,490,3840,490,3744,490C3648,490,3552,490,3456,490C3360,490,3264,490,3168,490C3072,490,2976,490,2880,490C2784,490,2688,490,2592,490C2496,490,2400,490,2304,490C2208,490,2112,490,2016,490C1920,490,1824,490,1728,490C1632,490,1536,490,1440,490C1344,490,1248,490,1152,490C1056,490,960,490,864,490C768,490,672,490,576,490C480,490,384,490,288,490C192,490,96,490,48,490L0,490Z"/></svg>